HIERARCHY
ROOT Hips
{
	OFFSET -0.179506 -22.333345 2.821913
	CHANNELS 6 Xposition Yposition Zposition Zrotation Yrotation Xrotation 
	JOINT LeftUpLeg
	{
		OFFSET 6.951974 -9.140623 -0.681533
		CHANNELS 3 Zrotation Yrotation Xrotation
		JOINT LeftLeg
		{
			OFFSET 3.427654 -37.519855 -0.449580
			CHANNELS 3 Zrotation Yrotation Xrotation
			JOINT LeftFoot
			{
				OFFSET -1.359570 -39.796059 -4.369333
				CHANNELS 3 Zrotation Yrotation Xrotation
				JOINT LeftToe
				{
					OFFSET 2.635814 -5.579078 11.928840
					CHANNELS 3 Zrotation Yrotation Xrotation
					End Site
					{
						OFFSET 0.000000 0.000000 0.000000
					}
				}
			}
		}
	}
	JOINT RightUpLeg
	{
		OFFSET -6.767048 -9.052170 -0.431982
		CHANNELS 3 Zrotation Yrotation Xrotation
		JOINT RightLeg
		{
			OFFSET -3.829005 -38.256897 -0.885003
			CHANNELS 3 Zrotation Yrotation Xrotation
			JOINT RightFoot
			{
				OFFSET 1.577377 -39.841461 -4.231180
				CHANNELS 3 Zrotation Yrotation Xrotation
				JOINT RightToe
				{
					OFFSET -2.537174 -4.814398 12.334795
					CHANNELS 3 Zrotation Yrotation Xrotation
					End Site
					{
						OFFSET 0.000000 0.000000 0.000000
					}
				}
			}
		}
	}
	JOINT Spine
	{
		OFFSET -0.253288 10.896323 -2.669631
		CHANNELS 3 Zrotation Yrotation Xrotation
		JOINT Spine1
		{
			OFFSET 0.548704 13.518043 0.109247
			CHANNELS 3 Zrotation Yrotation Xrotation
			JOINT Spine2
			{
				OFFSET 0.145701 5.292222 2.542457
				CHANNELS 3 Zrotation Yrotation Xrotation
				JOINT Neck
				{
					OFFSET -0.277840 21.387037 -4.285703
					CHANNELS 3 Zrotation Yrotation Xrotation
					JOINT Head
					{
						OFFSET 0.515184 6.496960 5.134897
						CHANNELS 3 Zrotation Yrotation Xrotation
						End Site
						{
							OFFSET 0.000000 0.000000 0.000000
						}
					}
				}
				JOINT LeftShoulder
				{
					OFFSET 7.884473 12.174932 -3.408961
					CHANNELS 3 Zrotation Yrotation Xrotation
					JOINT LeftArm
					{
						OFFSET 9.097692 3.046888 -0.886815
						CHANNELS 3 Zrotation Yrotation Xrotation
						JOINT LeftForeArm
						{
							OFFSET 25.961220 -1.277207 -2.745643
							CHANNELS 3 Zrotation Yrotation Xrotation
							JOINT LeftHand
							{
								OFFSET 24.923361 0.898606 -0.117091
								CHANNELS 3 Zrotation Yrotation Xrotation
								End Site
								{
									OFFSET 0.000000 0.000000 0.000000
								}
							}
						}
					}
				}
				JOINT RightShoulder
				{
					OFFSET -8.175920 11.883285 -3.861528
					CHANNELS 3 Zrotation Yrotation Xrotation
					JOINT RightArm
					{
						OFFSET -9.601238 3.255117 -0.914307
						CHANNELS 3 Zrotation Yrotation Xrotation
						JOINT RightForeArm
						{
							OFFSET -25.374195 -1.332924 -2.140099
							CHANNELS 3 Zrotation Yrotation Xrotation
							JOINT RightHand
							{
								OFFSET -25.529810 0.777228 -0.555919
								CHANNELS 3 Zrotation Yrotation Xrotation
								End Site
								{
									OFFSET 0.000000 0.000000 0.000000
								}
							}
						}
					}
				}
			}
		}
	}
}
MOTION
Frames: 8
Frame Time: 0.033333
-6.625825 73.205429 -41.487545 -61.623160 -38.549696 -34.644477 9.839310 -1.463626 -9.850004 2.140148 2.767575 23.940807 3.330560 19.363146 31.054178 0.156838 -0.592271 -2.436030 2.489505 -8.663016 9.110882 2.485980 -4.765371 2.557804 9.663035 -6.999935 22.237062 0.248990 -2.070492 -0.858865 -5.025357 4.558551 10.521195 -1.391973 -2.360667 -0.013595 3.148183 -1.088366 0.827477 -5.279051 -6.243978 0.798187 8.168867 -5.205762 -2.718103 0.002771 -15.357307 -4.860046 -41.994432 -29.241224 16.223939 -11.292319 -69.359284 25.811608 1.873449 -16.448474 -13.343594 -3.290422 17.745704 -7.306411 43.570181 28.518934 14.588852 -0.231843 49.960028 9.290476 -0.170054 4.861985 -5.707864 
-6.244073 73.238091 -41.474491 -60.928656 -40.674321 -35.537402 9.758169 -1.438794 -9.333585 2.210700 2.672264 23.929382 3.823271 19.516393 32.511495 0.463974 -0.391073 -2.277835 2.394868 -8.474089 9.339232 2.581440 -4.652276 2.445579 9.997287 -6.259671 21.518828 0.537575 -2.214852 -0.952102 -5.134250 4.522351 10.228082 -1.086156 -2.816427 0.078034 3.230530 -1.233134 1.060747 -5.367823 -5.981009 0.118872 8.139952 -5.014944 -2.576992 0.168870 -15.615749 -4.897576 -45.571586 -29.687258 18.059360 -13.265372 -66.194941 29.251690 -1.191913 -16.742718 -13.164363 -2.870283 17.484537 -7.345394 47.595801 27.811706 17.727091 2.802668 50.375503 13.628118 3.099354 4.875561 -6.516042 
-5.837307 73.271378 -41.227100 -60.652987 -42.365333 -36.109896 9.724546 -1.505887 -9.106362 1.906047 2.370283 24.115530 4.094274 19.438793 33.359504 0.547895 -0.375410 -2.665766 2.602273 -8.012958 9.340232 2.383749 -4.217409 2.797685 10.023721 -5.572572 20.945904 0.582529 -2.485365 -0.979194 -5.241398 4.411158 10.074367 -0.807133 -3.026381 0.416943 3.368488 -1.449050 0.950348 -5.552601 -5.848717 0.393197 8.238592 -4.852816 -2.432122 0.049642 -16.214979 -4.580398 -48.827479 -30.168495 19.690088 -13.858153 -62.514825 30.595168 -4.145013 -17.151358 -12.558919 -2.424293 17.712265 -6.937644 51.830197 26.710565 20.424259 5.564571 49.468729 16.893768 6.187466 4.992071 -8.134520 
-5.338931 73.304398 -40.918205 -59.958686 -44.761602 -36.888773 9.457625 -1.160682 -8.585882 2.126273 2.538612 23.702852 4.486038 19.683041 34.088309 0.706323 -0.185957 -2.618350 2.749042 -7.774555 9.273341 2.180489 -3.933806 2.975113 10.541328 -4.715981 21.106585 0.804015 -2.602521 -1.141349 -5.294642 4.298363 10.120088 -0.742574 -3.170026 0.424888 3.406591 -1.445674 0.686928 -5.862355 -5.743716 -0.179275 8.486691 -4.264110 -2.318723 -0.859662 -16.710977 -4.012233 -50.192538 -29.600265 20.527686 -15.134341 -59.414768 32.255047 -5.824452 -17.319007 -11.242238 -1.571542 17.592807 -6.060070 54.448221 24.040035 22.180992 7.923066 48.543642 19.779703 8.132218 5.321017 -7.314972 
-4.616811 73.341019 -39.538681 -59.806136 -46.602622 -36.665076 9.252547 -0.858124 -8.199673 1.634263 2.870375 23.025551 4.473249 19.399841 33.247032 0.913008 0.014870 -2.760600 2.668803 -7.489075 9.158988 1.821401 -3.437949 2.991146 10.754981 -3.655251 20.585467 1.383068 -2.832386 -1.027330 -5.211942 4.331580 10.234577 -0.610795 -3.320072 0.429518 3.474373 -1.477069 0.478392 -5.876886 -5.257920 -0.146324 8.635544 -3.790483 -2.505348 -1.386660 -16.544623 -3.279345 -52.371914 -28.731733 21.110746 -14.011801 -54.698950 31.680918 -7.649931 -17.074137 -10.432645 -1.018814 17.409192 -5.594678 57.872330 22.369589 23.538272 9.472696 46.018469 21.190979 9.327078 5.205264 -7.681449 
-3.931796 73.383804 -38.406116 -60.008848 -48.471005 -36.215252 8.996062 -0.501846 -7.539779 1.543717 3.415841 21.237462 3.965724 18.952649 31.860824 0.962120 0.007537 -2.931386 2.849944 -7.382066 8.906615 1.620125 -3.554472 2.939816 11.371156 -3.115466 20.412862 1.317133 -3.103349 -0.902563 -5.242596 4.321604 10.349694 -0.448949 -3.363719 0.020639 3.552643 -1.582541 0.414951 -5.960675 -4.838768 0.068985 8.971301 -3.049797 -2.435046 -2.548404 -16.106787 -2.206519 -52.851810 -27.213888 21.007281 -13.988105 -50.988990 31.514691 -8.365512 -16.965189 -9.190021 0.078360 16.882691 -4.466835 59.508110 19.802204 24.324878 10.717512 43.265901 22.849025 9.482526 5.052599 -6.832355 
-3.150689 73.428032 -36.999893 -60.221809 -50.579071 -35.647524 8.786912 -0.172008 -6.829234 1.363386 3.250562 19.520932 3.543629 18.874884 30.960600 1.219413 0.046860 -2.937239 2.941018 -7.142797 8.540140 1.473259 -2.958125 3.003878 12.031884 -2.740338 20.640925 1.075263 -3.180502 -0.967625 -5.150221 4.134566 10.663740 -0.499608 -3.365918 -0.551264 3.546587 -1.770948 0.530690 -5.832406 -4.838423 -0.493435 9.358141 -2.395773 -2.338544 -3.515043 -15.357572 -1.375561 -52.857726 -25.751025 20.741768 -14.044837 -46.694119 31.119215 -9.335060 -16.519603 -8.669451 0.914897 15.968672 -3.449366 60.615331 17.276458 24.708305 11.561304 39.958222 23.367385 10.413010 4.737770 -6.335629 
-2.460318 73.475273 -35.347000 -60.908126 -52.124611 -34.362859 8.575621 -0.018071 -6.465908 1.204451 3.055657 18.061488 2.653807 18.288808 28.988093 1.117517 0.093553 -2.843158 2.999258 -7.060642 8.155261 1.358996 -2.885489 2.709894 12.692746 -2.633172 20.393313 1.017394 -2.970441 -0.699296 -4.964824 3.950464 10.813447 -0.567633 -3.339944 -1.026273 3.606811 -1.881914 0.740439 -5.649615 -4.626988 -0.879843 9.765803 -1.726736 -1.975727 -4.605401 -14.382117 -0.502335 -52.461701 -24.090026 20.209051 -14.235354 -43.231784 30.851773 -9.360997 -16.224036 -7.900897 1.805826 14.859261 -2.585196 61.363338 14.947378 24.777257 11.388799 36.557234 22.955034 10.172303 4.476686 -5.316883 
